<?xml version="1.0" encoding="utf-8" standalone="no"?>
<!DOCTYPE svg PUBLIC "-//W3C//DTD SVG 1.1//EN"
  "http://www.w3.org/Graphics/SVG/1.1/DTD/svg11.dtd">
<svg xmlns:xlink="http://www.w3.org/1999/xlink" width="554.4pt" height="554.4pt" viewBox="0 0 554.4 554.4" xmlns="http://www.w3.org/2000/svg" version="1.1">
 <metadata>
  <rdf:RDF xmlns:dc="http://purl.org/dc/elements/1.1/" xmlns:cc="http://creativecommons.org/ns#" xmlns:rdf="http://www.w3.org/1999/02/22-rdf-syntax-ns#">
   <cc:Work>
    <dc:type rdf:resource="http://purl.org/dc/dcmitype/StillImage"/>
    <dc:date>2025-07-30T15:54:22.413661</dc:date>
    <dc:format>image/svg+xml</dc:format>
    <dc:creator>
     <cc:Agent>
      <dc:title>Matplotlib v3.10.3, https://matplotlib.org/</dc:title>
     </cc:Agent>
    </dc:creator>
   </cc:Work>
  </rdf:RDF>
 </metadata>
 <defs>
  <style type="text/css">*{stroke-linejoin: round; stroke-linecap: butt}</style>
 </defs>
 <g id="figure_1">
  <g id="patch_1">
   <path d="M 0 554.4 
L 554.4 554.4 
L 554.4 0 
L 0 0 
z
" style="fill: #0f1e32"/>
  </g>
  <g id="axes_1">
   <g id="PathCollection_1">
    <defs>
     <path id="m111e949e12" d="M 0 2.5 
C 0.663008 2.5 1.29895 2.236584 1.767767 1.767767 
C 2.236584 1.29895 2.5 0.663008 2.5 0 
C 2.5 -0.663008 2.236584 -1.29895 1.767767 -1.767767 
C 1.29895 -2.236584 0.663008 -2.5 0 -2.5 
C -0.663008 -2.5 -1.29895 -2.236584 -1.767767 -1.767767 
C -2.236584 -1.29895 -2.5 -0.663008 -2.5 0 
C -2.5 0.663008 -2.236584 1.29895 -1.767767 1.767767 
C -1.29895 2.236584 -0.663008 2.5 0 2.5 
z
" style="stroke: #ffffff"/>
    </defs>
    <g clip-path="url(#pd0cc3a0b15)">
     <use xlink:href="#m111e949e12" x="393.445161" y="232.490323" style="fill: #ffffff; stroke: #ffffff"/>
     <use xlink:href="#m111e949e12" x="383.395239" y="185.209156" style="fill: #ffffff; stroke: #ffffff"/>
     <use xlink:href="#m111e949e12" x="354.983195" y="146.103332" style="fill: #ffffff; stroke: #ffffff"/>
     <use xlink:href="#m111e949e12" x="313.12173" y="121.934604" style="fill: #ffffff; stroke: #ffffff"/>
     <use xlink:href="#m111e949e12" x="265.049072" y="116.881964" style="fill: #ffffff; stroke: #ffffff"/>
     <use xlink:href="#m111e949e12" x="219.077419" y="131.81906" style="fill: #ffffff; stroke: #ffffff"/>
     <use xlink:href="#m111e949e12" x="183.155689" y="164.163131" style="fill: #ffffff; stroke: #ffffff"/>
     <use xlink:href="#m111e949e12" x="163.495074" y="208.321595" style="fill: #ffffff; stroke: #ffffff"/>
     <use xlink:href="#m111e949e12" x="163.495074" y="256.659051" style="fill: #ffffff; stroke: #ffffff"/>
     <use xlink:href="#m111e949e12" x="183.155689" y="300.817514" style="fill: #ffffff; stroke: #ffffff"/>
     <use xlink:href="#m111e949e12" x="219.077419" y="333.161585" style="fill: #ffffff; stroke: #ffffff"/>
     <use xlink:href="#m111e949e12" x="265.049072" y="348.098681" style="fill: #ffffff; stroke: #ffffff"/>
     <use xlink:href="#m111e949e12" x="313.12173" y="343.046041" style="fill: #ffffff; stroke: #ffffff"/>
     <use xlink:href="#m111e949e12" x="354.983195" y="318.877313" style="fill: #ffffff; stroke: #ffffff"/>
     <use xlink:href="#m111e949e12" x="383.395239" y="279.771489" style="fill: #ffffff; stroke: #ffffff"/>
    </g>
   </g>
   <g id="PathCollection_2">
    <defs>
     <path id="mf295d8345a" d="M 0 3.215728 
C 0.852821 3.215728 1.670828 2.876899 2.273863 2.273863 
C 2.876899 1.670828 3.215728 0.852821 3.215728 0 
C 3.215728 -0.852821 2.876899 -1.670828 2.273863 -2.273863 
C 1.670828 -2.876899 0.852821 -3.215728 0 -3.215728 
C -0.852821 -3.215728 -1.670828 -2.876899 -2.273863 -2.273863 
C -2.876899 -1.670828 -3.215728 -0.852821 -3.215728 0 
C -3.215728 0.852821 -2.876899 1.670828 -2.273863 2.273863 
C -1.670828 2.876899 -0.852821 3.215728 0 3.215728 
z
" style="stroke: #ffffff"/>
    </defs>
    <g clip-path="url(#pd0cc3a0b15)">
     <use xlink:href="#mf295d8345a" x="395.278192" y="207.392028" style="fill: #ffffff; stroke: #ffffff"/>
     <use xlink:href="#mf295d8345a" x="374.8614" y="161.535162" style="fill: #ffffff; stroke: #ffffff"/>
     <use xlink:href="#mf295d8345a" x="337.558065" y="127.947088" style="fill: #ffffff; stroke: #ffffff"/>
     <use xlink:href="#mf295d8345a" x="289.818271" y="112.435489" style="fill: #ffffff; stroke: #ffffff"/>
     <use xlink:href="#mf295d8345a" x="238.535349" y="113.205431" style="fill: #ffffff; stroke: #ffffff"/>
     <use xlink:href="#mf295d8345a" x="189.614044" y="134.409508" style="fill: #ffffff; stroke: #ffffff"/>
     <use xlink:href="#mf295d8345a" x="160.95476" y="180.696393" style="fill: #ffffff; stroke: #ffffff"/>
     <use xlink:href="#mf295d8345a" x="155.542951" y="232.477436" style="fill: #ffffff; stroke: #ffffff"/>
     <use xlink:href="#mf295d8345a" x="166.920329" y="281.589996" style="fill: #ffffff; stroke: #ffffff"/>
     <use xlink:href="#mf295d8345a" x="196.425143" y="322.199889" style="fill: #ffffff; stroke: #ffffff"/>
     <use xlink:href="#mf295d8345a" x="239.896665" y="347.298184" style="fill: #ffffff; stroke: #ffffff"/>
     <use xlink:href="#mf295d8345a" x="289.818271" y="352.545156" style="fill: #ffffff; stroke: #ffffff"/>
     <use xlink:href="#mf295d8345a" x="337.558065" y="337.033557" style="fill: #ffffff; stroke: #ffffff"/>
     <use xlink:href="#mf295d8345a" x="374.8614" y="303.445483" style="fill: #ffffff; stroke: #ffffff"/>
     <use xlink:href="#mf295d8345a" x="395.278192" y="257.588617" style="fill: #ffffff; stroke: #ffffff"/>
    </g>
   </g>
   <g id="PathCollection_3">
    <defs>
     <path id="m3b049ea03c" d="M 0 3.798923 
C 1.007486 3.798923 1.973844 3.398645 2.686244 2.686244 
C 3.398645 1.973844 3.798923 1.007486 3.798923 0 
C 3.798923 -1.007486 3.398645 -1.973844 2.686244 -2.686244 
C 1.973844 -3.398645 1.007486 -3.798923 0 -3.798923 
C -1.007486 -3.798923 -1.973844 -3.398645 -2.686244 -2.686244 
C -3.398645 -1.973844 -3.798923 -1.007486 -3.798923 0 
C -3.798923 1.007486 -3.398645 1.973844 -2.686244 2.686244 
C -1.973844 3.398645 -1.007486 3.798923 0 3.798923 
z
" style="stroke: #ffffff"/>
    </defs>
    <g clip-path="url(#pd0cc3a0b15)">
     <use xlink:href="#m3b049ea03c" x="402.387097" y="232.490323" style="fill: #ffffff; stroke: #ffffff"/>
     <use xlink:href="#m3b049ea03c" x="391.564104" y="181.572143" style="fill: #ffffff; stroke: #ffffff"/>
     <use xlink:href="#m3b049ea03c" x="360.966518" y="139.458179" style="fill: #ffffff; stroke: #ffffff"/>
     <use xlink:href="#m3b049ea03c" x="315.88494" y="113.430318" style="fill: #ffffff; stroke: #ffffff"/>
     <use xlink:href="#m3b049ea03c" x="263.929121" y="104.451032" style="fill: #ffffff; stroke: #ffffff"/>
     <use xlink:href="#m3b049ea03c" x="205.735221" y="109.578766" style="fill: #ffffff; stroke: #ffffff"/>
     <use xlink:href="#m3b049ea03c" x="159.201606" y="147.135762" style="fill: #ffffff; stroke: #ffffff"/>
     <use xlink:href="#m3b049ea03c" x="148.916845" y="205.124963" style="fill: #ffffff; stroke: #ffffff"/>
     <use xlink:href="#m3b049ea03c" x="154.748542" y="258.518184" style="fill: #ffffff; stroke: #ffffff"/>
     <use xlink:href="#m3b049ea03c" x="175.921511" y="306.073452" style="fill: #ffffff; stroke: #ffffff"/>
     <use xlink:href="#m3b049ea03c" x="214.606452" y="340.905529" style="fill: #ffffff; stroke: #ffffff"/>
     <use xlink:href="#m3b049ea03c" x="264.114385" y="356.991631" style="fill: #ffffff; stroke: #ffffff"/>
     <use xlink:href="#m3b049ea03c" x="315.88494" y="351.550327" style="fill: #ffffff; stroke: #ffffff"/>
     <use xlink:href="#m3b049ea03c" x="360.966518" y="325.522466" style="fill: #ffffff; stroke: #ffffff"/>
     <use xlink:href="#m3b049ea03c" x="391.564104" y="283.408502" style="fill: #ffffff; stroke: #ffffff"/>
    </g>
   </g>
   <g id="PathCollection_4">
    <defs>
     <path id="mdef6e72c94" d="M 0 4.303804 
C 1.141382 4.303804 2.23617 3.850328 3.043249 3.043249 
C 3.850328 2.23617 4.303804 1.141382 4.303804 0 
C 4.303804 -1.141382 3.850328 -2.23617 3.043249 -3.043249 
C 2.23617 -3.850328 1.141382 -4.303804 0 -4.303804 
C -1.141382 -4.303804 -2.23617 -3.850328 -3.043249 -3.043249 
C -3.850328 -2.23617 -4.303804 -1.141382 -4.303804 0 
C -4.303804 1.141382 -3.850328 2.23617 -3.043249 3.043249 
C -2.23617 3.850328 -1.141382 4.303804 0 4.303804 
z
" style="stroke: #ffffff"/>
    </defs>
    <g clip-path="url(#pd0cc3a0b15)">
     <use xlink:href="#mdef6e72c94" x="404.024725" y="205.532895" style="fill: #ffffff; stroke: #ffffff"/>
     <use xlink:href="#mdef6e72c94" x="382.095578" y="156.279224" style="fill: #ffffff; stroke: #ffffff"/>
     <use xlink:href="#mdef6e72c94" x="342.029032" y="120.203145" style="fill: #ffffff; stroke: #ffffff"/>
     <use xlink:href="#mdef6e72c94" x="290.752958" y="103.542539" style="fill: #ffffff; stroke: #ffffff"/>
     <use xlink:href="#mdef6e72c94" x="232.670712" y="95.678748" style="fill: #ffffff; stroke: #ffffff"/>
     <use xlink:href="#mdef6e72c94" x="167.966881" y="110.353034" style="fill: #ffffff; stroke: #ffffff"/>
     <use xlink:href="#mdef6e72c94" x="140.884842" y="171.395015" style="fill: #ffffff; stroke: #ffffff"/>
     <use xlink:href="#mdef6e72c94" x="144.622912" y="232.489789" style="fill: #ffffff; stroke: #ffffff"/>
     <use xlink:href="#mdef6e72c94" x="158.751464" y="285.227008" style="fill: #ffffff; stroke: #ffffff"/>
     <use xlink:href="#mdef6e72c94" x="190.441821" y="328.845042" style="fill: #ffffff; stroke: #ffffff"/>
     <use xlink:href="#mdef6e72c94" x="237.133455" y="355.80247" style="fill: #ffffff; stroke: #ffffff"/>
     <use xlink:href="#mdef6e72c94" x="290.752958" y="361.438107" style="fill: #ffffff; stroke: #ffffff"/>
     <use xlink:href="#mdef6e72c94" x="342.029032" y="344.7775" style="fill: #ffffff; stroke: #ffffff"/>
     <use xlink:href="#mdef6e72c94" x="382.095578" y="308.701421" style="fill: #ffffff; stroke: #ffffff"/>
     <use xlink:href="#mdef6e72c94" x="404.024725" y="259.44775" style="fill: #ffffff; stroke: #ffffff"/>
    </g>
   </g>
   <g id="PathCollection_5">
    <defs>
     <path id="m249525b512" d="M 0 4.75538 
C 1.261141 4.75538 2.4708 4.254323 3.362561 3.362561 
C 4.254323 2.4708 4.75538 1.261141 4.75538 0 
C 4.75538 -1.261141 4.254323 -2.4708 3.362561 -3.362561 
C 2.4708 -4.254323 1.261141 -4.75538 0 -4.75538 
C -1.261141 -4.75538 -2.4708 -4.254323 -3.362561 -3.362561 
C -4.254323 -2.4708 -4.75538 -1.261141 -4.75538 0 
C -4.75538 1.261141 -4.254323 2.4708 -3.362561 3.362561 
C -2.4708 4.254323 -1.261141 4.75538 0 4.75538 
z
" style="stroke: #ffffff"/>
    </defs>
    <g clip-path="url(#pd0cc3a0b15)">
     <use xlink:href="#m249525b512" x="411.329032" y="232.490323" style="fill: #ffffff; stroke: #ffffff"/>
     <use xlink:href="#m249525b512" x="399.732968" y="177.93513" style="fill: #ffffff; stroke: #ffffff"/>
     <use xlink:href="#m249525b512" x="366.949841" y="132.813026" style="fill: #ffffff; stroke: #ffffff"/>
     <use xlink:href="#m249525b512" x="318.64815" y="104.926032" style="fill: #ffffff; stroke: #ffffff"/>
     <use xlink:href="#m249525b512" x="262.521097" y="91.855731" style="fill: #ffffff; stroke: #ffffff"/>
     <use xlink:href="#m249525b512" x="193.921604" y="87.402282" style="fill: #ffffff; stroke: #ffffff"/>
     <use xlink:href="#m249525b512" x="136.065281" y="129.698319" style="fill: #ffffff; stroke: #ffffff"/>
     <use xlink:href="#m249525b512" x="134.440484" y="202.432062" style="fill: #ffffff; stroke: #ffffff"/>
     <use xlink:href="#m249525b512" x="146.002009" y="260.377316" style="fill: #ffffff; stroke: #ffffff"/>
     <use xlink:href="#m249525b512" x="168.687333" y="311.32939" style="fill: #ffffff; stroke: #ffffff"/>
     <use xlink:href="#m249525b512" x="210.135484" y="348.649472" style="fill: #ffffff; stroke: #ffffff"/>
     <use xlink:href="#m249525b512" x="263.179698" y="365.884582" style="fill: #ffffff; stroke: #ffffff"/>
     <use xlink:href="#m249525b512" x="318.64815" y="360.054613" style="fill: #ffffff; stroke: #ffffff"/>
     <use xlink:href="#m249525b512" x="366.949841" y="332.167619" style="fill: #ffffff; stroke: #ffffff"/>
     <use xlink:href="#m249525b512" x="399.732968" y="287.045515" style="fill: #ffffff; stroke: #ffffff"/>
    </g>
   </g>
   <g id="PathCollection_6">
    <defs>
     <path id="me2911885ca" d="M 0 5.167644 
C 1.370475 5.167644 2.685004 4.623149 3.654076 3.654076 
C 4.623149 2.685004 5.167644 1.370475 5.167644 0 
C 5.167644 -1.370475 4.623149 -2.685004 3.654076 -3.654076 
C 2.685004 -4.623149 1.370475 -5.167644 0 -5.167644 
C -1.370475 -5.167644 -2.685004 -4.623149 -3.654076 -3.654076 
C -4.623149 -2.685004 -5.167644 -1.370475 -5.167644 0 
C -5.167644 1.370475 -4.623149 2.685004 -3.654076 3.654076 
C -2.685004 4.623149 -1.370475 5.167644 0 5.167644 
z
" style="stroke: #ffffff"/>
    </defs>
    <g clip-path="url(#pd0cc3a0b15)">
     <use xlink:href="#me2911885ca" x="412.771257" y="203.673762" style="fill: #ffffff; stroke: #ffffff"/>
     <use xlink:href="#me2911885ca" x="389.329755" y="151.023287" style="fill: #ffffff; stroke: #ffffff"/>
     <use xlink:href="#me2911885ca" x="346.5" y="112.459202" style="fill: #ffffff; stroke: #ffffff"/>
     <use xlink:href="#me2911885ca" x="291.687645" y="94.649588" style="fill: #ffffff; stroke: #ffffff"/>
     <use xlink:href="#me2911885ca" x="227.684357" y="77.961883" style="fill: #ffffff; stroke: #ffffff"/>
     <use xlink:href="#me2911885ca" x="147.088009" y="87.405686" style="fill: #ffffff; stroke: #ffffff"/>
     <use xlink:href="#me2911885ca" x="119.973472" y="163.156008" style="fill: #ffffff; stroke: #ffffff"/>
     <use xlink:href="#me2911885ca" x="133.685774" y="232.460704" style="fill: #ffffff; stroke: #ffffff"/>
     <use xlink:href="#me2911885ca" x="150.5826" y="288.864021" style="fill: #ffffff; stroke: #ffffff"/>
     <use xlink:href="#me2911885ca" x="184.458498" y="335.490195" style="fill: #ffffff; stroke: #ffffff"/>
     <use xlink:href="#me2911885ca" x="234.370245" y="364.306756" style="fill: #ffffff; stroke: #ffffff"/>
     <use xlink:href="#me2911885ca" x="291.687645" y="370.331057" style="fill: #ffffff; stroke: #ffffff"/>
     <use xlink:href="#me2911885ca" x="346.5" y="352.521444" style="fill: #ffffff; stroke: #ffffff"/>
     <use xlink:href="#me2911885ca" x="389.329755" y="313.957359" style="fill: #ffffff; stroke: #ffffff"/>
     <use xlink:href="#me2911885ca" x="412.771257" y="261.306883" style="fill: #ffffff; stroke: #ffffff"/>
    </g>
   </g>
   <g id="PathCollection_7">
    <defs>
     <path id="m8835eee493" d="M 0 5.549365 
C 1.471709 5.549365 2.883338 4.964649 3.923994 3.923994 
C 4.964649 2.883338 5.549365 1.471709 5.549365 0 
C 5.549365 -1.471709 4.964649 -2.883338 3.923994 -3.923994 
C 2.883338 -4.964649 1.471709 -5.549365 0 -5.549365 
C -1.471709 -5.549365 -2.883338 -4.964649 -3.923994 -3.923994 
C -4.964649 -2.883338 -5.549365 -1.471709 -5.549365 0 
C -5.549365 1.471709 -4.964649 2.883338 -3.923994 3.923994 
C -2.883338 4.964649 -1.471709 5.549365 0 5.549365 
z
" style="stroke: #ffffff"/>
    </defs>
    <g clip-path="url(#pd0cc3a0b15)">
     <use xlink:href="#m8835eee493" x="420.270968" y="232.490323" style="fill: #ffffff; stroke: #ffffff"/>
     <use xlink:href="#m8835eee493" x="407.901833" y="174.298117" style="fill: #ffffff; stroke: #ffffff"/>
     <use xlink:href="#m8835eee493" x="372.933163" y="126.167873" style="fill: #ffffff; stroke: #ffffff"/>
     <use xlink:href="#m8835eee493" x="321.41136" y="96.421746" style="fill: #ffffff; stroke: #ffffff"/>
     <use xlink:href="#m8835eee493" x="261.008691" y="79.714309" style="fill: #ffffff; stroke: #ffffff"/>
     <use xlink:href="#m8835eee493" x="180.893491" y="64.683412" style="fill: #ffffff; stroke: #ffffff"/>
     <use xlink:href="#m8835eee493" x="112.18684" y="112.452118" style="fill: #ffffff; stroke: #ffffff"/>
     <use xlink:href="#m8835eee493" x="119.794577" y="199.034651" style="fill: #ffffff; stroke: #ffffff"/>
     <use xlink:href="#m8835eee493" x="137.255476" y="262.236449" style="fill: #ffffff; stroke: #ffffff"/>
     <use xlink:href="#m8835eee493" x="161.453156" y="316.585327" style="fill: #ffffff; stroke: #ffffff"/>
     <use xlink:href="#m8835eee493" x="205.664516" y="356.393415" style="fill: #ffffff; stroke: #ffffff"/>
     <use xlink:href="#m8835eee493" x="262.245012" y="374.777533" style="fill: #ffffff; stroke: #ffffff"/>
     <use xlink:href="#m8835eee493" x="321.41136" y="368.558899" style="fill: #ffffff; stroke: #ffffff"/>
     <use xlink:href="#m8835eee493" x="372.933163" y="338.812772" style="fill: #ffffff; stroke: #ffffff"/>
     <use xlink:href="#m8835eee493" x="407.901833" y="290.682528" style="fill: #ffffff; stroke: #ffffff"/>
    </g>
   </g>
   <g id="PathCollection_8">
    <defs>
     <path id="mfd806a8c00" d="M 0 5.906468 
C 1.566414 5.906468 3.068882 5.284125 4.176504 4.176504 
C 5.284125 3.068882 5.906468 1.566414 5.906468 0 
C 5.906468 -1.566414 5.284125 -3.068882 4.176504 -4.176504 
C 3.068882 -5.284125 1.566414 -5.906468 0 -5.906468 
C -1.566414 -5.906468 -3.068882 -5.284125 -4.176504 -4.176504 
C -5.284125 -3.068882 -5.906468 -1.566414 -5.906468 0 
C -5.906468 1.566414 -5.284125 3.068882 -4.176504 4.176504 
C -3.068882 5.284125 -1.566414 5.906468 0 5.906468 
z
" style="stroke: #ffffff"/>
    </defs>
    <g clip-path="url(#pd0cc3a0b15)">
     <use xlink:href="#mfd806a8c00" x="421.51779" y="201.814629" style="fill: #ffffff; stroke: #ffffff"/>
     <use xlink:href="#mfd806a8c00" x="396.563933" y="145.767349" style="fill: #ffffff; stroke: #ffffff"/>
     <use xlink:href="#mfd806a8c00" x="350.970968" y="104.715258" style="fill: #ffffff; stroke: #ffffff"/>
     <use xlink:href="#mfd806a8c00" x="292.622332" y="85.756637" style="fill: #ffffff; stroke: #ffffff"/>
     <use xlink:href="#mfd806a8c00" x="221.403289" y="61.52116" style="fill: #ffffff; stroke: #ffffff"/>
     <use xlink:href="#mfd806a8c00" x="124.754602" y="65.151992" style="fill: #ffffff; stroke: #ffffff"/>
     <use xlink:href="#mfd806a8c00" x="101.913514" y="153.170602" style="fill: #ffffff; stroke: #ffffff"/>
     <use xlink:href="#mfd806a8c00" x="122.653227" y="232.274305" style="fill: #ffffff; stroke: #ffffff"/>
     <use xlink:href="#mfd806a8c00" x="142.413735" y="292.501034" style="fill: #ffffff; stroke: #ffffff"/>
     <use xlink:href="#mfd806a8c00" x="178.475175" y="342.135348" style="fill: #ffffff; stroke: #ffffff"/>
     <use xlink:href="#mfd806a8c00" x="231.607035" y="372.811042" style="fill: #ffffff; stroke: #ffffff"/>
     <use xlink:href="#mfd806a8c00" x="292.622332" y="379.224008" style="fill: #ffffff; stroke: #ffffff"/>
     <use xlink:href="#mfd806a8c00" x="350.970968" y="360.265387" style="fill: #ffffff; stroke: #ffffff"/>
     <use xlink:href="#mfd806a8c00" x="396.563933" y="319.213296" style="fill: #ffffff; stroke: #ffffff"/>
     <use xlink:href="#mfd806a8c00" x="421.51779" y="263.166016" style="fill: #ffffff; stroke: #ffffff"/>
    </g>
   </g>
   <g id="PathCollection_9">
    <defs>
     <path id="m041ad3dcbc" d="M 0 6.243178 
C 1.65571 6.243178 3.24383 5.585357 4.414594 4.414594 
C 5.585357 3.24383 6.243178 1.65571 6.243178 0 
C 6.243178 -1.65571 5.585357 -3.24383 4.414594 -4.414594 
C 3.24383 -5.585357 1.65571 -6.243178 0 -6.243178 
C -1.65571 -6.243178 -3.24383 -5.585357 -4.414594 -4.414594 
C -5.585357 -3.24383 -6.243178 -1.65571 -6.243178 0 
C -6.243178 1.65571 -5.585357 3.24383 -4.414594 4.414594 
C -3.24383 5.585357 -1.65571 6.243178 0 6.243178 
z
" style="stroke: #ffffff"/>
    </defs>
    <g clip-path="url(#pd0cc3a0b15)">
     <use xlink:href="#m041ad3dcbc" x="429.212903" y="232.490323" style="fill: #ffffff; stroke: #ffffff"/>
     <use xlink:href="#m041ad3dcbc" x="416.070697" y="170.661105" style="fill: #ffffff; stroke: #ffffff"/>
     <use xlink:href="#m041ad3dcbc" x="378.916486" y="119.52272" style="fill: #ffffff; stroke: #ffffff"/>
     <use xlink:href="#m041ad3dcbc" x="324.17457" y="87.91746" style="fill: #ffffff; stroke: #ffffff"/>
     <use xlink:href="#m041ad3dcbc" x="259.810625" y="67.1355" style="fill: #ffffff; stroke: #ffffff"/>
     <use xlink:href="#m041ad3dcbc" x="167.2663" y="41.670232" style="fill: #ffffff; stroke: #ffffff"/>
     <use xlink:href="#m041ad3dcbc" x="90.680203" y="94.504751" style="fill: #ffffff; stroke: #ffffff"/>
     <use xlink:href="#m041ad3dcbc" x="104.693563" y="196.277115" style="fill: #ffffff; stroke: #ffffff"/>
     <use xlink:href="#m041ad3dcbc" x="128.508943" y="264.095582" style="fill: #ffffff; stroke: #ffffff"/>
     <use xlink:href="#m041ad3dcbc" x="154.218978" y="321.841265" style="fill: #ffffff; stroke: #ffffff"/>
     <use xlink:href="#m041ad3dcbc" x="201.193548" y="364.137358" style="fill: #ffffff; stroke: #ffffff"/>
     <use xlink:href="#m041ad3dcbc" x="261.310325" y="383.670483" style="fill: #ffffff; stroke: #ffffff"/>
     <use xlink:href="#m041ad3dcbc" x="324.17457" y="377.063185" style="fill: #ffffff; stroke: #ffffff"/>
     <use xlink:href="#m041ad3dcbc" x="378.916486" y="345.457925" style="fill: #ffffff; stroke: #ffffff"/>
     <use xlink:href="#m041ad3dcbc" x="416.070697" y="294.319541" style="fill: #ffffff; stroke: #ffffff"/>
    </g>
   </g>
   <g id="PathCollection_10">
    <defs>
     <path id="m0cb26df34a" d="M 0 6.562635 
C 1.740431 6.562635 3.409813 5.871155 4.640484 4.640484 
C 5.871155 3.409813 6.562635 1.740431 6.562635 0 
C 6.562635 -1.740431 5.871155 -3.409813 4.640484 -4.640484 
C 3.409813 -5.871155 1.740431 -6.562635 0 -6.562635 
C -1.740431 -6.562635 -3.409813 -5.871155 -4.640484 -4.640484 
C -5.871155 -3.409813 -6.562635 -1.740431 -6.562635 0 
C -6.562635 1.740431 -5.871155 3.409813 -4.640484 4.640484 
C -3.409813 5.871155 -1.740431 6.562635 0 6.562635 
z
" style="stroke: #ffffff"/>
    </defs>
    <g clip-path="url(#pd0cc3a0b15)">
     <use xlink:href="#m0cb26df34a" x="430.264323" y="199.955496" style="fill: #ffffff; stroke: #ffffff"/>
     <use xlink:href="#m0cb26df34a" x="403.798111" y="140.511411" style="fill: #ffffff; stroke: #ffffff"/>
     <use xlink:href="#m0cb26df34a" x="355.441935" y="96.971315" style="fill: #ffffff; stroke: #ffffff"/>
     <use xlink:href="#m0cb26df34a" x="293.557019" y="76.863687" style="fill: #ffffff; stroke: #ffffff"/>
     <use xlink:href="#m0cb26df34a" x="214.733157" y="44.673007" style="fill: #ffffff; stroke: #ffffff"/>
     <use xlink:href="#m0cb26df34a" x="105.142684" y="43.824661" style="fill: #ffffff; stroke: #ffffff"/>
     <use xlink:href="#m0cb26df34a" x="81.290958" y="146.18509" style="fill: #ffffff; stroke: #ffffff"/>
     <use xlink:href="#m0cb26df34a" x="111.919425" y="232.768137" style="fill: #ffffff; stroke: #ffffff"/>
     <use xlink:href="#m0cb26df34a" x="134.24487" y="296.138047" style="fill: #ffffff; stroke: #ffffff"/>
     <use xlink:href="#m0cb26df34a" x="172.491853" y="348.780502" style="fill: #ffffff; stroke: #ffffff"/>
     <use xlink:href="#m0cb26df34a" x="228.843825" y="381.315328" style="fill: #ffffff; stroke: #ffffff"/>
     <use xlink:href="#m0cb26df34a" x="293.557019" y="388.116959" style="fill: #ffffff; stroke: #ffffff"/>
     <use xlink:href="#m0cb26df34a" x="355.441935" y="368.00933" style="fill: #ffffff; stroke: #ffffff"/>
     <use xlink:href="#m0cb26df34a" x="403.798111" y="324.469234" style="fill: #ffffff; stroke: #ffffff"/>
     <use xlink:href="#m0cb26df34a" x="430.264323" y="265.025149" style="fill: #ffffff; stroke: #ffffff"/>
    </g>
   </g>
   <g id="PathCollection_11">
    <defs>
     <path id="m768b240324" d="M 0 6.867248 
C 1.821215 6.867248 3.568084 6.143671 4.855877 4.855877 
C 6.143671 3.568084 6.867248 1.821215 6.867248 0 
C 6.867248 -1.821215 6.143671 -3.568084 4.855877 -4.855877 
C 3.568084 -6.143671 1.821215 -6.867248 0 -6.867248 
C -1.821215 -6.867248 -3.568084 -6.143671 -4.855877 -4.855877 
C -6.143671 -3.568084 -6.867248 -1.821215 -6.867248 0 
C -6.867248 1.821215 -6.143671 3.568084 -4.855877 4.855877 
C -3.568084 6.143671 -1.821215 6.867248 0 6.867248 
z
" style="stroke: #ffffff"/>
    </defs>
    <g clip-path="url(#pd0cc3a0b15)">
     <use xlink:href="#m768b240324" x="438.154839" y="232.490323" style="fill: #ffffff; stroke: #ffffff"/>
     <use xlink:href="#m768b240324" x="424.239562" y="167.024092" style="fill: #ffffff; stroke: #ffffff"/>
     <use xlink:href="#m768b240324" x="384.899809" y="112.877567" style="fill: #ffffff; stroke: #ffffff"/>
     <use xlink:href="#m768b240324" x="326.93778" y="79.413174" style="fill: #ffffff; stroke: #ffffff"/>
     <use xlink:href="#m768b240324" x="259.321504" y="54.522894" style="fill: #ffffff; stroke: #ffffff"/>
     <use xlink:href="#m768b240324" x="154.805909" y="18.324559" style="fill: #ffffff; stroke: #ffffff"/>
     <use xlink:href="#m768b240324" x="64.09511" y="76.329102" style="fill: #ffffff; stroke: #ffffff"/>
     <use xlink:href="#m768b240324" x="91.467568" y="192.327684" style="fill: #ffffff; stroke: #ffffff"/>
     <use xlink:href="#m768b240324" x="119.762411" y="265.954715" style="fill: #ffffff; stroke: #ffffff"/>
     <use xlink:href="#m768b240324" x="146.9848" y="327.097203" style="fill: #ffffff; stroke: #ffffff"/>
     <use xlink:href="#m768b240324" x="196.722581" y="371.881302" style="fill: #ffffff; stroke: #ffffff"/>
     <use xlink:href="#m768b240324" x="260.375638" y="392.563434" style="fill: #ffffff; stroke: #ffffff"/>
     <use xlink:href="#m768b240324" x="326.93778" y="385.567471" style="fill: #ffffff; stroke: #ffffff"/>
     <use xlink:href="#m768b240324" x="384.899809" y="352.103078" style="fill: #ffffff; stroke: #ffffff"/>
     <use xlink:href="#m768b240324" x="424.239562" y="297.956553" style="fill: #ffffff; stroke: #ffffff"/>
    </g>
   </g>
   <g id="PathCollection_12">
    <defs>
     <path id="m42dc53da79" d="M 0 7.158911 
C 1.898565 7.158911 3.719626 6.404603 5.062114 5.062114 
C 6.404603 3.719626 7.158911 1.898565 7.158911 0 
C 7.158911 -1.898565 6.404603 -3.719626 5.062114 -5.062114 
C 3.719626 -6.404603 1.898565 -7.158911 0 -7.158911 
C -1.898565 -7.158911 -3.719626 -6.404603 -5.062114 -5.062114 
C -6.404603 -3.719626 -7.158911 -1.898565 -7.158911 0 
C -7.158911 1.898565 -6.404603 3.719626 -5.062114 5.062114 
C -3.719626 6.404603 -1.898565 7.158911 0 7.158911 
z
" style="stroke: #ffffff"/>
    </defs>
    <g clip-path="url(#pd0cc3a0b15)">
     <use xlink:href="#m42dc53da79" x="439.010856" y="198.096363" style="fill: #ffffff; stroke: #ffffff"/>
     <use xlink:href="#m42dc53da79" x="411.032289" y="135.255473" style="fill: #ffffff; stroke: #ffffff"/>
     <use xlink:href="#m42dc53da79" x="359.912903" y="89.227372" style="fill: #ffffff; stroke: #ffffff"/>
     <use xlink:href="#m42dc53da79" x="294.491705" y="67.970736" style="fill: #ffffff; stroke: #ffffff"/>
     <use xlink:href="#m42dc53da79" x="208.906608" y="26.880523" style="fill: #ffffff; stroke: #ffffff"/>
     <use xlink:href="#m42dc53da79" x="86.428292" y="15.548119" style="fill: #ffffff; stroke: #ffffff"/>
     <use xlink:href="#m42dc53da79" x="61.606334" y="134.551186" style="fill: #ffffff; stroke: #ffffff"/>
     <use xlink:href="#m42dc53da79" x="101.402586" y="232.583137" style="fill: #ffffff; stroke: #ffffff"/>
     <use xlink:href="#m42dc53da79" x="126.076006" y="299.77506" style="fill: #ffffff; stroke: #ffffff"/>
     <use xlink:href="#m42dc53da79" x="166.50853" y="355.425655" style="fill: #ffffff; stroke: #ffffff"/>
     <use xlink:href="#m42dc53da79" x="226.080614" y="389.819614" style="fill: #ffffff; stroke: #ffffff"/>
     <use xlink:href="#m42dc53da79" x="294.491705" y="397.009909" style="fill: #ffffff; stroke: #ffffff"/>
     <use xlink:href="#m42dc53da79" x="359.912903" y="375.753273" style="fill: #ffffff; stroke: #ffffff"/>
     <use xlink:href="#m42dc53da79" x="411.032289" y="329.725172" style="fill: #ffffff; stroke: #ffffff"/>
     <use xlink:href="#m42dc53da79" x="439.010856" y="266.884282" style="fill: #ffffff; stroke: #ffffff"/>
    </g>
   </g>
   <g id="text_1">
    <!-- ORDIAL -->
    <g style="fill: #ffffff" transform="translate(73.995 486.509516) scale(0.96 -0.96)">
     <defs>
      <path id="DejaVuSans-Bold-4f" d="M 2719 3878 
Q 2169 3878 1866 3472 
Q 1563 3066 1563 2328 
Q 1563 1594 1866 1187 
Q 2169 781 2719 781 
Q 3272 781 3575 1187 
Q 3878 1594 3878 2328 
Q 3878 3066 3575 3472 
Q 3272 3878 2719 3878 
z
M 2719 4750 
Q 3844 4750 4481 4106 
Q 5119 3463 5119 2328 
Q 5119 1197 4481 553 
Q 3844 -91 2719 -91 
Q 1597 -91 958 553 
Q 319 1197 319 2328 
Q 319 3463 958 4106 
Q 1597 4750 2719 4750 
z
" transform="scale(0.015625)"/>
      <path id="DejaVuSans-Bold-52" d="M 2297 2597 
Q 2675 2597 2839 2737 
Q 3003 2878 3003 3200 
Q 3003 3519 2839 3656 
Q 2675 3794 2297 3794 
L 1791 3794 
L 1791 2597 
L 2297 2597 
z
M 1791 1766 
L 1791 0 
L 588 0 
L 588 4666 
L 2425 4666 
Q 3347 4666 3776 4356 
Q 4206 4047 4206 3378 
Q 4206 2916 3982 2619 
Q 3759 2322 3309 2181 
Q 3556 2125 3751 1926 
Q 3947 1728 4147 1325 
L 4800 0 
L 3519 0 
L 2950 1159 
Q 2778 1509 2601 1637 
Q 2425 1766 2131 1766 
L 1791 1766 
z
" transform="scale(0.015625)"/>
      <path id="DejaVuSans-Bold-44" d="M 1791 3756 
L 1791 909 
L 2222 909 
Q 2959 909 3348 1275 
Q 3738 1641 3738 2338 
Q 3738 3031 3350 3393 
Q 2963 3756 2222 3756 
L 1791 3756 
z
M 588 4666 
L 1856 4666 
Q 2919 4666 3439 4514 
Q 3959 4363 4331 4000 
Q 4659 3684 4818 3271 
Q 4978 2859 4978 2338 
Q 4978 1809 4818 1395 
Q 4659 981 4331 666 
Q 3956 303 3431 151 
Q 2906 0 1856 0 
L 588 0 
L 588 4666 
z
" transform="scale(0.015625)"/>
      <path id="DejaVuSans-Bold-49" d="M 588 4666 
L 1791 4666 
L 1791 0 
L 588 0 
L 588 4666 
z
" transform="scale(0.015625)"/>
      <path id="DejaVuSans-Bold-41" d="M 3419 850 
L 1538 850 
L 1241 0 
L 31 0 
L 1759 4666 
L 3194 4666 
L 4922 0 
L 3713 0 
L 3419 850 
z
M 1838 1716 
L 3116 1716 
L 2478 3572 
L 1838 1716 
z
" transform="scale(0.015625)"/>
      <path id="DejaVuSans-Bold-4c" d="M 588 4666 
L 1791 4666 
L 1791 909 
L 3903 909 
L 3903 0 
L 588 0 
L 588 4666 
z
" transform="scale(0.015625)"/>
     </defs>
     <use xlink:href="#DejaVuSans-Bold-4f"/>
     <use xlink:href="#DejaVuSans-Bold-52" transform="translate(85.009766 0)"/>
     <use xlink:href="#DejaVuSans-Bold-44" transform="translate(162.011719 0)"/>
     <use xlink:href="#DejaVuSans-Bold-49" transform="translate(245.019531 0)"/>
     <use xlink:href="#DejaVuSans-Bold-41" transform="translate(282.226562 0)"/>
     <use xlink:href="#DejaVuSans-Bold-4c" transform="translate(359.619141 0)"/>
    </g>
   </g>
  </g>
 </g>
 <defs>
  <clipPath id="pd0cc3a0b15">
   <rect x="0" y="0" width="554.4" height="554.4"/>
  </clipPath>
 </defs>
</svg>
